<?xml version="1.0" encoding="UTF-8"?>
<svg width="180px" height="180px" viewBox="0 0 180 180" version="1.1" xmlns="http://www.w3.org/2000/svg" xmlns:xlink="http://www.w3.org/1999/xlink">
    <title>编组 8</title>
    <defs>
        <rect id="path-1" x="12" y="12" width="156" height="156" rx="78"></rect>
        <filter x="-30.0%" y="-10.8%" width="146.7%" height="121.5%" filterUnits="objectBoundingBox" id="filter-3">
            <feOffset dx="0" dy="2" in="SourceAlpha" result="shadowOffsetOuter1"></feOffset>
            <feGaussianBlur stdDeviation="2" in="shadowOffsetOuter1" result="shadowBlurOuter1"></feGaussianBlur>
            <feColorMatrix values="0 0 0 0 0.0500899415   0 0 0 0 0.096678433   0 0 0 0 0.307103143  0 0 0 0.2 0" type="matrix" in="shadowBlurOuter1" result="shadowMatrixOuter1"></feColorMatrix>
            <feMerge>
                <feMergeNode in="shadowMatrixOuter1"></feMergeNode>
                <feMergeNode in="SourceGraphic"></feMergeNode>
            </feMerge>
        </filter>
        <path d="M10,0 L22,0 C23.1045695,-2.02906125e-16 24,0.8954305 24,2 L24,14 L24,14 L8,14 L8,2 C8,0.8954305 8.8954305,2.02906125e-16 10,0 Z" id="path-4"></path>
        <filter x="-9.4%" y="-10.7%" width="118.8%" height="121.4%" filterUnits="objectBoundingBox" id="filter-5">
            <feGaussianBlur stdDeviation="1" in="SourceAlpha" result="shadowBlurInner1"></feGaussianBlur>
            <feOffset dx="1" dy="-1" in="shadowBlurInner1" result="shadowOffsetInner1"></feOffset>
            <feComposite in="shadowOffsetInner1" in2="SourceAlpha" operator="arithmetic" k2="-1" k3="1" result="shadowInnerInner1"></feComposite>
            <feColorMatrix values="0 0 0 0 0   0 0 0 0 0   0 0 0 0 0  0 0 0 0.15 0" type="matrix" in="shadowInnerInner1" result="shadowMatrixInner1"></feColorMatrix>
            <feGaussianBlur stdDeviation="0.5" in="SourceAlpha" result="shadowBlurInner2"></feGaussianBlur>
            <feOffset dx="-1" dy="1" in="shadowBlurInner2" result="shadowOffsetInner2"></feOffset>
            <feComposite in="shadowOffsetInner2" in2="SourceAlpha" operator="arithmetic" k2="-1" k3="1" result="shadowInnerInner2"></feComposite>
            <feColorMatrix values="0 0 0 0 1   0 0 0 0 1   0 0 0 0 1  0 0 0 0.520949997 0" type="matrix" in="shadowInnerInner2" result="shadowMatrixInner2"></feColorMatrix>
            <feMerge>
                <feMergeNode in="shadowMatrixInner1"></feMergeNode>
                <feMergeNode in="shadowMatrixInner2"></feMergeNode>
            </feMerge>
        </filter>
        <linearGradient x1="58.8779641%" y1="23.7058237%" x2="37.7058926%" y2="78.7208306%" id="linearGradient-6">
            <stop stop-color="#809DD7" offset="0%"></stop>
            <stop stop-color="#5762B3" offset="100%"></stop>
        </linearGradient>
        <path d="M27,12 C28.6568542,12 30,13.3431458 30,15 L30,61 C30,63.209139 28.209139,65 26,65 L6,65 C3.790861,65 2,63.209139 2,61 L2,15 C2,13.3431458 3.34314575,12 5,12 L27,12 Z M23,53 L9,53 C7.8954305,53 7,53.8954305 7,55 L7,58 C7,59.1045695 7.8954305,60 9,60 L23,60 C24.1045695,60 25,59.1045695 25,58 L25,55 C25,53.8954305 24.1045695,53 23,53 Z" id="path-7"></path>
        <filter x="-10.7%" y="-5.7%" width="121.4%" height="111.3%" filterUnits="objectBoundingBox" id="filter-8">
            <feGaussianBlur stdDeviation="1" in="SourceAlpha" result="shadowBlurInner1"></feGaussianBlur>
            <feOffset dx="-2" dy="2" in="shadowBlurInner1" result="shadowOffsetInner1"></feOffset>
            <feComposite in="shadowOffsetInner1" in2="SourceAlpha" operator="arithmetic" k2="-1" k3="1" result="shadowInnerInner1"></feComposite>
            <feColorMatrix values="0 0 0 0 0.739797304   0 0 0 0 0.839250665   0 0 0 0 1  0 0 0 0.426848298 0" type="matrix" in="shadowInnerInner1" result="shadowMatrixInner1"></feColorMatrix>
            <feGaussianBlur stdDeviation="2" in="SourceAlpha" result="shadowBlurInner2"></feGaussianBlur>
            <feOffset dx="2" dy="-2" in="shadowBlurInner2" result="shadowOffsetInner2"></feOffset>
            <feComposite in="shadowOffsetInner2" in2="SourceAlpha" operator="arithmetic" k2="-1" k3="1" result="shadowInnerInner2"></feComposite>
            <feColorMatrix values="0 0 0 0 0.0859817202   0 0 0 0 0.101298701   0 0 0 0 0.262657276  0 0 0 0.242411153 0" type="matrix" in="shadowInnerInner2" result="shadowMatrixInner2"></feColorMatrix>
            <feMerge>
                <feMergeNode in="shadowMatrixInner1"></feMergeNode>
                <feMergeNode in="shadowMatrixInner2"></feMergeNode>
            </feMerge>
        </filter>
        <rect id="path-9" x="0" y="0" width="42" height="28" rx="3"></rect>
        <rect id="path-11" x="7" y="53" width="18" height="7" rx="2"></rect>
        <filter x="-16.7%" y="-42.9%" width="133.3%" height="185.7%" filterUnits="objectBoundingBox" id="filter-12">
            <feOffset dx="0" dy="0" in="SourceAlpha" result="shadowOffsetOuter1"></feOffset>
            <feMorphology radius="1" operator="erode" in="SourceAlpha" result="shadowInner"></feMorphology>
            <feOffset dx="0" dy="0" in="shadowInner" result="shadowInner"></feOffset>
            <feComposite in="shadowOffsetOuter1" in2="shadowInner" operator="out" result="shadowOffsetOuter1"></feComposite>
            <feGaussianBlur stdDeviation="1" in="shadowOffsetOuter1" result="shadowBlurOuter1"></feGaussianBlur>
            <feColorMatrix values="0 0 0 0 0   0 0 0 0 0   0 0 0 0 0  0 0 0 0.25 0" type="matrix" in="shadowBlurOuter1"></feColorMatrix>
        </filter>
        <linearGradient x1="38.781377%" y1="7.85742486%" x2="50%" y2="100%" id="linearGradient-13">
            <stop stop-color="#EFEFF1" offset="0%"></stop>
            <stop stop-color="#DBDBDF" offset="100%"></stop>
        </linearGradient>
        <path d="M8,0 L72,0 L72,124 C72,128.418278 68.418278,132 64,132 L8,132 L8,132 L8,0 Z" id="path-14"></path>
        <filter x="-34.4%" y="-12.1%" width="168.8%" height="133.3%" filterUnits="objectBoundingBox" id="filter-15">
            <feMorphology radius="1" operator="dilate" in="SourceAlpha" result="shadowSpreadOuter1"></feMorphology>
            <feOffset dx="0" dy="6" in="shadowSpreadOuter1" result="shadowOffsetOuter1"></feOffset>
            <feGaussianBlur stdDeviation="6" in="shadowOffsetOuter1" result="shadowBlurOuter1"></feGaussianBlur>
            <feComposite in="shadowBlurOuter1" in2="SourceAlpha" operator="out" result="shadowBlurOuter1"></feComposite>
            <feColorMatrix values="0 0 0 0 0   0 0 0 0 0   0 0 0 0 0  0 0 0 0.2 0" type="matrix" in="shadowBlurOuter1"></feColorMatrix>
        </filter>
        <filter x="-24.2%" y="-7.2%" width="148.4%" height="123.5%" filterUnits="objectBoundingBox" id="filter-16">
            <feGaussianBlur stdDeviation="1.5" in="SourceAlpha" result="shadowBlurInner1"></feGaussianBlur>
            <feOffset dx="0" dy="1" in="shadowBlurInner1" result="shadowOffsetInner1"></feOffset>
            <feComposite in="shadowOffsetInner1" in2="SourceAlpha" operator="arithmetic" k2="-1" k3="1" result="shadowInnerInner1"></feComposite>
            <feColorMatrix values="0 0 0 0 1   0 0 0 0 1   0 0 0 0 1  0 0 0 0.5 0" type="matrix" in="shadowInnerInner1" result="shadowMatrixInner1"></feColorMatrix>
            <feGaussianBlur stdDeviation="1.5" in="SourceAlpha" result="shadowBlurInner2"></feGaussianBlur>
            <feOffset dx="0" dy="-2" in="shadowBlurInner2" result="shadowOffsetInner2"></feOffset>
            <feComposite in="shadowOffsetInner2" in2="SourceAlpha" operator="arithmetic" k2="-1" k3="1" result="shadowInnerInner2"></feComposite>
            <feColorMatrix values="0 0 0 0 0   0 0 0 0 0   0 0 0 0 0  0 0 0 0.1 0" type="matrix" in="shadowInnerInner2" result="shadowMatrixInner2"></feColorMatrix>
            <feMerge>
                <feMergeNode in="shadowMatrixInner1"></feMergeNode>
                <feMergeNode in="shadowMatrixInner2"></feMergeNode>
            </feMerge>
        </filter>
        <path d="M7,94 L17,94 C18.1045695,94 19,94.8954305 19,96 L19,120 C19,121.104569 18.1045695,122 17,122 L7,122 L7,122 L7,94 Z" id="path-17"></path>
        <filter x="-8.3%" y="-3.6%" width="116.7%" height="107.1%" filterUnits="objectBoundingBox" id="filter-18">
            <feGaussianBlur stdDeviation="1" in="SourceAlpha" result="shadowBlurInner1"></feGaussianBlur>
            <feOffset dx="0" dy="0" in="shadowBlurInner1" result="shadowOffsetInner1"></feOffset>
            <feComposite in="shadowOffsetInner1" in2="SourceAlpha" operator="arithmetic" k2="-1" k3="1" result="shadowInnerInner1"></feComposite>
            <feColorMatrix values="0 0 0 0 0   0 0 0 0 0   0 0 0 0 0  0 0 0 0.20363889 0" type="matrix" in="shadowInnerInner1"></feColorMatrix>
        </filter>
        <path d="M0,0 L57,0 C59.209139,-4.05812251e-16 61,1.790861 61,4 L61,72 C61,74.209139 59.209139,76 57,76 L0,76 L0,76 L0,0 Z" id="path-19"></path>
        <filter x="-3.3%" y="-2.6%" width="106.6%" height="105.3%" filterUnits="objectBoundingBox" id="filter-21">
            <feGaussianBlur stdDeviation="2" in="SourceAlpha" result="shadowBlurInner1"></feGaussianBlur>
            <feOffset dx="0" dy="0" in="shadowBlurInner1" result="shadowOffsetInner1"></feOffset>
            <feComposite in="shadowOffsetInner1" in2="SourceAlpha" operator="arithmetic" k2="-1" k3="1" result="shadowInnerInner1"></feComposite>
            <feColorMatrix values="0 0 0 0 0   0 0 0 0 0   0 0 0 0 0  0 0 0 0.25 0" type="matrix" in="shadowInnerInner1"></feColorMatrix>
        </filter>
        <rect id="path-22" x="39" y="6" width="16" height="14" rx="2"></rect>
        <filter x="-6.2%" y="-7.1%" width="112.5%" height="114.3%" filterUnits="objectBoundingBox" id="filter-23">
            <feGaussianBlur stdDeviation="0.5" in="SourceAlpha" result="shadowBlurInner1"></feGaussianBlur>
            <feOffset dx="-1" dy="-1" in="shadowBlurInner1" result="shadowOffsetInner1"></feOffset>
            <feComposite in="shadowOffsetInner1" in2="SourceAlpha" operator="arithmetic" k2="-1" k3="1" result="shadowInnerInner1"></feComposite>
            <feColorMatrix values="0 0 0 0 0   0 0 0 0 0   0 0 0 0 0  0 0 0 0.3 0" type="matrix" in="shadowInnerInner1" result="shadowMatrixInner1"></feColorMatrix>
            <feGaussianBlur stdDeviation="0.5" in="SourceAlpha" result="shadowBlurInner2"></feGaussianBlur>
            <feOffset dx="1" dy="1" in="shadowBlurInner2" result="shadowOffsetInner2"></feOffset>
            <feComposite in="shadowOffsetInner2" in2="SourceAlpha" operator="arithmetic" k2="-1" k3="1" result="shadowInnerInner2"></feComposite>
            <feColorMatrix values="0 0 0 0 1   0 0 0 0 1   0 0 0 0 1  0 0 0 0.1 0" type="matrix" in="shadowInnerInner2" result="shadowMatrixInner2"></feColorMatrix>
            <feMerge>
                <feMergeNode in="shadowMatrixInner1"></feMergeNode>
                <feMergeNode in="shadowMatrixInner2"></feMergeNode>
            </feMerge>
        </filter>
        <rect id="path-24" x="22" y="6" width="14" height="14" rx="2"></rect>
        <filter x="-7.1%" y="-7.1%" width="114.3%" height="114.3%" filterUnits="objectBoundingBox" id="filter-25">
            <feGaussianBlur stdDeviation="0.5" in="SourceAlpha" result="shadowBlurInner1"></feGaussianBlur>
            <feOffset dx="-1" dy="-1" in="shadowBlurInner1" result="shadowOffsetInner1"></feOffset>
            <feComposite in="shadowOffsetInner1" in2="SourceAlpha" operator="arithmetic" k2="-1" k3="1" result="shadowInnerInner1"></feComposite>
            <feColorMatrix values="0 0 0 0 0   0 0 0 0 0   0 0 0 0 0  0 0 0 0.3 0" type="matrix" in="shadowInnerInner1" result="shadowMatrixInner1"></feColorMatrix>
            <feGaussianBlur stdDeviation="0.5" in="SourceAlpha" result="shadowBlurInner2"></feGaussianBlur>
            <feOffset dx="1" dy="1" in="shadowBlurInner2" result="shadowOffsetInner2"></feOffset>
            <feComposite in="shadowOffsetInner2" in2="SourceAlpha" operator="arithmetic" k2="-1" k3="1" result="shadowInnerInner2"></feComposite>
            <feColorMatrix values="0 0 0 0 1   0 0 0 0 1   0 0 0 0 1  0 0 0 0.1 0" type="matrix" in="shadowInnerInner2" result="shadowMatrixInner2"></feColorMatrix>
            <feMerge>
                <feMergeNode in="shadowMatrixInner1"></feMergeNode>
                <feMergeNode in="shadowMatrixInner2"></feMergeNode>
            </feMerge>
        </filter>
        <rect id="path-26" x="5" y="6" width="14" height="14" rx="2"></rect>
        <filter x="-7.1%" y="-7.1%" width="114.3%" height="114.3%" filterUnits="objectBoundingBox" id="filter-27">
            <feGaussianBlur stdDeviation="0.5" in="SourceAlpha" result="shadowBlurInner1"></feGaussianBlur>
            <feOffset dx="-1" dy="-1" in="shadowBlurInner1" result="shadowOffsetInner1"></feOffset>
            <feComposite in="shadowOffsetInner1" in2="SourceAlpha" operator="arithmetic" k2="-1" k3="1" result="shadowInnerInner1"></feComposite>
            <feColorMatrix values="0 0 0 0 0   0 0 0 0 0   0 0 0 0 0  0 0 0 0.3 0" type="matrix" in="shadowInnerInner1" result="shadowMatrixInner1"></feColorMatrix>
            <feGaussianBlur stdDeviation="0.5" in="SourceAlpha" result="shadowBlurInner2"></feGaussianBlur>
            <feOffset dx="1" dy="1" in="shadowBlurInner2" result="shadowOffsetInner2"></feOffset>
            <feComposite in="shadowOffsetInner2" in2="SourceAlpha" operator="arithmetic" k2="-1" k3="1" result="shadowInnerInner2"></feComposite>
            <feColorMatrix values="0 0 0 0 1   0 0 0 0 1   0 0 0 0 1  0 0 0 0.1 0" type="matrix" in="shadowInnerInner2" result="shadowMatrixInner2"></feColorMatrix>
            <feMerge>
                <feMergeNode in="shadowMatrixInner1"></feMergeNode>
                <feMergeNode in="shadowMatrixInner2"></feMergeNode>
            </feMerge>
        </filter>
        <rect id="path-28" x="34" y="23" width="21" height="14" rx="2"></rect>
        <filter x="-4.8%" y="-7.1%" width="109.5%" height="114.3%" filterUnits="objectBoundingBox" id="filter-29">
            <feGaussianBlur stdDeviation="0.5" in="SourceAlpha" result="shadowBlurInner1"></feGaussianBlur>
            <feOffset dx="-1" dy="-1" in="shadowBlurInner1" result="shadowOffsetInner1"></feOffset>
            <feComposite in="shadowOffsetInner1" in2="SourceAlpha" operator="arithmetic" k2="-1" k3="1" result="shadowInnerInner1"></feComposite>
            <feColorMatrix values="0 0 0 0 0   0 0 0 0 0   0 0 0 0 0  0 0 0 0.3 0" type="matrix" in="shadowInnerInner1" result="shadowMatrixInner1"></feColorMatrix>
            <feGaussianBlur stdDeviation="0.5" in="SourceAlpha" result="shadowBlurInner2"></feGaussianBlur>
            <feOffset dx="1" dy="1" in="shadowBlurInner2" result="shadowOffsetInner2"></feOffset>
            <feComposite in="shadowOffsetInner2" in2="SourceAlpha" operator="arithmetic" k2="-1" k3="1" result="shadowInnerInner2"></feComposite>
            <feColorMatrix values="0 0 0 0 1   0 0 0 0 1   0 0 0 0 1  0 0 0 0.1 0" type="matrix" in="shadowInnerInner2" result="shadowMatrixInner2"></feColorMatrix>
            <feMerge>
                <feMergeNode in="shadowMatrixInner1"></feMergeNode>
                <feMergeNode in="shadowMatrixInner2"></feMergeNode>
            </feMerge>
        </filter>
        <rect id="path-30" x="42" y="57" width="13" height="14" rx="2"></rect>
        <filter x="-7.7%" y="-7.1%" width="115.4%" height="114.3%" filterUnits="objectBoundingBox" id="filter-31">
            <feGaussianBlur stdDeviation="0.5" in="SourceAlpha" result="shadowBlurInner1"></feGaussianBlur>
            <feOffset dx="-1" dy="-1" in="shadowBlurInner1" result="shadowOffsetInner1"></feOffset>
            <feComposite in="shadowOffsetInner1" in2="SourceAlpha" operator="arithmetic" k2="-1" k3="1" result="shadowInnerInner1"></feComposite>
            <feColorMatrix values="0 0 0 0 0   0 0 0 0 0   0 0 0 0 0  0 0 0 0.3 0" type="matrix" in="shadowInnerInner1" result="shadowMatrixInner1"></feColorMatrix>
            <feGaussianBlur stdDeviation="0.5" in="SourceAlpha" result="shadowBlurInner2"></feGaussianBlur>
            <feOffset dx="1" dy="1" in="shadowBlurInner2" result="shadowOffsetInner2"></feOffset>
            <feComposite in="shadowOffsetInner2" in2="SourceAlpha" operator="arithmetic" k2="-1" k3="1" result="shadowInnerInner2"></feComposite>
            <feColorMatrix values="0 0 0 0 1   0 0 0 0 1   0 0 0 0 1  0 0 0 0.1 0" type="matrix" in="shadowInnerInner2" result="shadowMatrixInner2"></feColorMatrix>
            <feMerge>
                <feMergeNode in="shadowMatrixInner1"></feMergeNode>
                <feMergeNode in="shadowMatrixInner2"></feMergeNode>
            </feMerge>
        </filter>
        <rect id="path-32" x="26" y="57" width="13" height="14" rx="2"></rect>
        <filter x="-7.7%" y="-7.1%" width="115.4%" height="114.3%" filterUnits="objectBoundingBox" id="filter-33">
            <feGaussianBlur stdDeviation="0.5" in="SourceAlpha" result="shadowBlurInner1"></feGaussianBlur>
            <feOffset dx="-1" dy="-1" in="shadowBlurInner1" result="shadowOffsetInner1"></feOffset>
            <feComposite in="shadowOffsetInner1" in2="SourceAlpha" operator="arithmetic" k2="-1" k3="1" result="shadowInnerInner1"></feComposite>
            <feColorMatrix values="0 0 0 0 0   0 0 0 0 0   0 0 0 0 0  0 0 0 0.3 0" type="matrix" in="shadowInnerInner1" result="shadowMatrixInner1"></feColorMatrix>
            <feGaussianBlur stdDeviation="0.5" in="SourceAlpha" result="shadowBlurInner2"></feGaussianBlur>
            <feOffset dx="1" dy="1" in="shadowBlurInner2" result="shadowOffsetInner2"></feOffset>
            <feComposite in="shadowOffsetInner2" in2="SourceAlpha" operator="arithmetic" k2="-1" k3="1" result="shadowInnerInner2"></feComposite>
            <feColorMatrix values="0 0 0 0 1   0 0 0 0 1   0 0 0 0 1  0 0 0 0.1 0" type="matrix" in="shadowInnerInner2" result="shadowMatrixInner2"></feColorMatrix>
            <feMerge>
                <feMergeNode in="shadowMatrixInner1"></feMergeNode>
                <feMergeNode in="shadowMatrixInner2"></feMergeNode>
            </feMerge>
        </filter>
        <rect id="path-34" x="10" y="57" width="13" height="14" rx="2"></rect>
        <filter x="-7.7%" y="-7.1%" width="115.4%" height="114.3%" filterUnits="objectBoundingBox" id="filter-35">
            <feGaussianBlur stdDeviation="0.5" in="SourceAlpha" result="shadowBlurInner1"></feGaussianBlur>
            <feOffset dx="-1" dy="-1" in="shadowBlurInner1" result="shadowOffsetInner1"></feOffset>
            <feComposite in="shadowOffsetInner1" in2="SourceAlpha" operator="arithmetic" k2="-1" k3="1" result="shadowInnerInner1"></feComposite>
            <feColorMatrix values="0 0 0 0 0   0 0 0 0 0   0 0 0 0 0  0 0 0 0.3 0" type="matrix" in="shadowInnerInner1" result="shadowMatrixInner1"></feColorMatrix>
            <feGaussianBlur stdDeviation="0.5" in="SourceAlpha" result="shadowBlurInner2"></feGaussianBlur>
            <feOffset dx="1" dy="1" in="shadowBlurInner2" result="shadowOffsetInner2"></feOffset>
            <feComposite in="shadowOffsetInner2" in2="SourceAlpha" operator="arithmetic" k2="-1" k3="1" result="shadowInnerInner2"></feComposite>
            <feColorMatrix values="0 0 0 0 1   0 0 0 0 1   0 0 0 0 1  0 0 0 0.1 0" type="matrix" in="shadowInnerInner2" result="shadowMatrixInner2"></feColorMatrix>
            <feMerge>
                <feMergeNode in="shadowMatrixInner1"></feMergeNode>
                <feMergeNode in="shadowMatrixInner2"></feMergeNode>
            </feMerge>
        </filter>
        <rect id="path-36" x="26" y="40" width="29" height="14" rx="2"></rect>
        <filter x="-3.4%" y="-7.1%" width="106.9%" height="114.3%" filterUnits="objectBoundingBox" id="filter-37">
            <feGaussianBlur stdDeviation="0.5" in="SourceAlpha" result="shadowBlurInner1"></feGaussianBlur>
            <feOffset dx="-1" dy="-1" in="shadowBlurInner1" result="shadowOffsetInner1"></feOffset>
            <feComposite in="shadowOffsetInner1" in2="SourceAlpha" operator="arithmetic" k2="-1" k3="1" result="shadowInnerInner1"></feComposite>
            <feColorMatrix values="0 0 0 0 0   0 0 0 0 0   0 0 0 0 0  0 0 0 0.3 0" type="matrix" in="shadowInnerInner1" result="shadowMatrixInner1"></feColorMatrix>
            <feGaussianBlur stdDeviation="0.5" in="SourceAlpha" result="shadowBlurInner2"></feGaussianBlur>
            <feOffset dx="1" dy="1" in="shadowBlurInner2" result="shadowOffsetInner2"></feOffset>
            <feComposite in="shadowOffsetInner2" in2="SourceAlpha" operator="arithmetic" k2="-1" k3="1" result="shadowInnerInner2"></feComposite>
            <feColorMatrix values="0 0 0 0 1   0 0 0 0 1   0 0 0 0 1  0 0 0 0.1 0" type="matrix" in="shadowInnerInner2" result="shadowMatrixInner2"></feColorMatrix>
            <feMerge>
                <feMergeNode in="shadowMatrixInner1"></feMergeNode>
                <feMergeNode in="shadowMatrixInner2"></feMergeNode>
            </feMerge>
        </filter>
        <rect id="path-38" x="17" y="23" width="14" height="14" rx="2"></rect>
        <filter x="-7.1%" y="-7.1%" width="114.3%" height="114.3%" filterUnits="objectBoundingBox" id="filter-39">
            <feGaussianBlur stdDeviation="0.5" in="SourceAlpha" result="shadowBlurInner1"></feGaussianBlur>
            <feOffset dx="-1" dy="-1" in="shadowBlurInner1" result="shadowOffsetInner1"></feOffset>
            <feComposite in="shadowOffsetInner1" in2="SourceAlpha" operator="arithmetic" k2="-1" k3="1" result="shadowInnerInner1"></feComposite>
            <feColorMatrix values="0 0 0 0 0   0 0 0 0 0   0 0 0 0 0  0 0 0 0.3 0" type="matrix" in="shadowInnerInner1" result="shadowMatrixInner1"></feColorMatrix>
            <feGaussianBlur stdDeviation="0.5" in="SourceAlpha" result="shadowBlurInner2"></feGaussianBlur>
            <feOffset dx="1" dy="1" in="shadowBlurInner2" result="shadowOffsetInner2"></feOffset>
            <feComposite in="shadowOffsetInner2" in2="SourceAlpha" operator="arithmetic" k2="-1" k3="1" result="shadowInnerInner2"></feComposite>
            <feColorMatrix values="0 0 0 0 1   0 0 0 0 1   0 0 0 0 1  0 0 0 0.1 0" type="matrix" in="shadowInnerInner2" result="shadowMatrixInner2"></feColorMatrix>
            <feMerge>
                <feMergeNode in="shadowMatrixInner1"></feMergeNode>
                <feMergeNode in="shadowMatrixInner2"></feMergeNode>
            </feMerge>
        </filter>
        <rect id="path-40" x="0" y="23" width="14" height="14" rx="2"></rect>
        <filter x="-7.1%" y="-7.1%" width="114.3%" height="114.3%" filterUnits="objectBoundingBox" id="filter-41">
            <feGaussianBlur stdDeviation="0.5" in="SourceAlpha" result="shadowBlurInner1"></feGaussianBlur>
            <feOffset dx="-1" dy="-1" in="shadowBlurInner1" result="shadowOffsetInner1"></feOffset>
            <feComposite in="shadowOffsetInner1" in2="SourceAlpha" operator="arithmetic" k2="-1" k3="1" result="shadowInnerInner1"></feComposite>
            <feColorMatrix values="0 0 0 0 0   0 0 0 0 0   0 0 0 0 0  0 0 0 0.3 0" type="matrix" in="shadowInnerInner1" result="shadowMatrixInner1"></feColorMatrix>
            <feGaussianBlur stdDeviation="0.5" in="SourceAlpha" result="shadowBlurInner2"></feGaussianBlur>
            <feOffset dx="1" dy="1" in="shadowBlurInner2" result="shadowOffsetInner2"></feOffset>
            <feComposite in="shadowOffsetInner2" in2="SourceAlpha" operator="arithmetic" k2="-1" k3="1" result="shadowInnerInner2"></feComposite>
            <feColorMatrix values="0 0 0 0 1   0 0 0 0 1   0 0 0 0 1  0 0 0 0.1 0" type="matrix" in="shadowInnerInner2" result="shadowMatrixInner2"></feColorMatrix>
            <feMerge>
                <feMergeNode in="shadowMatrixInner1"></feMergeNode>
                <feMergeNode in="shadowMatrixInner2"></feMergeNode>
            </feMerge>
        </filter>
        <rect id="path-42" x="9" y="40" width="14" height="14" rx="2"></rect>
        <filter x="-7.1%" y="-7.1%" width="114.3%" height="114.3%" filterUnits="objectBoundingBox" id="filter-43">
            <feGaussianBlur stdDeviation="0.5" in="SourceAlpha" result="shadowBlurInner1"></feGaussianBlur>
            <feOffset dx="-1" dy="-1" in="shadowBlurInner1" result="shadowOffsetInner1"></feOffset>
            <feComposite in="shadowOffsetInner1" in2="SourceAlpha" operator="arithmetic" k2="-1" k3="1" result="shadowInnerInner1"></feComposite>
            <feColorMatrix values="0 0 0 0 0   0 0 0 0 0   0 0 0 0 0  0 0 0 0.3 0" type="matrix" in="shadowInnerInner1" result="shadowMatrixInner1"></feColorMatrix>
            <feGaussianBlur stdDeviation="0.5" in="SourceAlpha" result="shadowBlurInner2"></feGaussianBlur>
            <feOffset dx="1" dy="1" in="shadowBlurInner2" result="shadowOffsetInner2"></feOffset>
            <feComposite in="shadowOffsetInner2" in2="SourceAlpha" operator="arithmetic" k2="-1" k3="1" result="shadowInnerInner2"></feComposite>
            <feColorMatrix values="0 0 0 0 1   0 0 0 0 1   0 0 0 0 1  0 0 0 0.1 0" type="matrix" in="shadowInnerInner2" result="shadowMatrixInner2"></feColorMatrix>
            <feMerge>
                <feMergeNode in="shadowMatrixInner1"></feMergeNode>
                <feMergeNode in="shadowMatrixInner2"></feMergeNode>
            </feMerge>
        </filter>
        <linearGradient x1="50%" y1="0%" x2="50%" y2="100%" id="linearGradient-44">
            <stop stop-color="#FFFFFF" offset="0%"></stop>
            <stop stop-color="#F0F0F0" offset="100%"></stop>
        </linearGradient>
        <rect id="path-45" x="0" y="0" width="77" height="28" rx="4.4"></rect>
        <filter x="-8.4%" y="-19.6%" width="116.9%" height="146.4%" filterUnits="objectBoundingBox" id="filter-46">
            <feOffset dx="0" dy="1" in="SourceAlpha" result="shadowOffsetOuter1"></feOffset>
            <feGaussianBlur stdDeviation="2" in="shadowOffsetOuter1" result="shadowBlurOuter1"></feGaussianBlur>
            <feColorMatrix values="0 0 0 0 0   0 0 0 0 0   0 0 0 0 0  0 0 0 0.15 0" type="matrix" in="shadowBlurOuter1"></feColorMatrix>
        </filter>
        <linearGradient x1="50%" y1="48.5914811%" x2="53.0568573%" y2="51.4085189%" id="linearGradient-47">
            <stop stop-color="#2DBEF5" offset="0%"></stop>
            <stop stop-color="#0323B2" offset="100%"></stop>
        </linearGradient>
        <path d="M9.31069545,8.96 C9.91820867,8.96 10.4106954,9.45248678 10.4106954,10.06 L10.4104347,12.62 L12.5625867,11.3551191 C13.0852496,11.047873 13.7580238,11.2225028 14.0652699,11.7451657 C14.0681635,11.7500881 14.0710187,11.755033 14.0738352,11.76 L14.0896518,11.7878933 C14.3860119,12.3105369 14.2081856,12.974287 13.6902298,13.2787661 L11.5094347,14.559 L13.6902298,15.8412339 C14.2081856,16.145713 14.3860119,16.8094631 14.0896518,17.3321067 L14.0738352,17.36 C13.7747818,17.8873934 13.1048143,18.0724995 12.5774209,17.7734462 C12.572454,17.7706297 12.5675091,17.7677745 12.5625867,17.7648809 L10.4104347,16.499 L10.4106954,19.06 C10.4106954,19.6675132 9.91820867,20.16 9.31069545,20.16 C8.70318222,20.16 8.21069545,19.6675132 8.21069545,19.06 L8.21043471,16.499 L6.05880421,17.7648809 C5.5361413,18.072127 4.8633671,17.8974972 4.55612099,17.3748343 L4.53173911,17.3321067 C4.23537902,16.8094631 4.41320532,16.145713 4.93116113,15.8412339 L7.11043471,14.56 L4.93116113,13.2787661 C4.41320532,12.974287 4.23537902,12.3105369 4.53173911,11.7878933 L4.54755573,11.76 C4.8466091,11.2326066 5.51657657,11.0475005 6.04396995,11.3465538 C6.0489369,11.3493703 6.05388181,11.3522255 6.05880421,11.3551191 L8.21043471,12.62 L8.21069545,10.06 C8.21069545,9.45248678 8.70318222,8.96 9.31069545,8.96 Z M23.5320863,8.96 C24.1395996,8.96 24.6320863,9.45248678 24.6320863,10.06 L24.6318256,12.62 L26.7839776,11.3551191 C27.3066405,11.047873 27.9794147,11.2225028 28.2866608,11.7451657 C28.2895544,11.7500881 28.2924096,11.755033 28.2952261,11.76 L28.3110427,11.7878933 C28.6074028,12.3105369 28.4295765,12.974287 27.9116207,13.2787661 L25.7308256,14.559 L27.9116207,15.8412339 C28.4295765,16.145713 28.6074028,16.8094631 28.3110427,17.3321067 L28.2952261,17.36 C27.9961727,17.8873934 27.3262052,18.0724995 26.7988118,17.7734462 C26.7938449,17.7706297 26.7889,17.7677745 26.7839776,17.7648809 L24.6318256,16.499 L24.6320863,19.06 C24.6320863,19.6675132 24.1395996,20.16 23.5320863,20.16 C22.9245731,20.16 22.4320863,19.6675132 22.4320863,19.06 L22.4318256,16.499 L20.2801951,17.7648809 C19.7575322,18.072127 19.084758,17.8974972 18.7775119,17.3748343 L18.75313,17.3321067 C18.4567699,16.8094631 18.6345962,16.145713 19.152552,15.8412339 L21.3318256,14.56 L19.152552,13.2787661 C18.6345962,12.974287 18.4567699,12.3105369 18.75313,11.7878933 L18.7689466,11.76 C19.068,11.2326066 19.7379675,11.0475005 20.2653608,11.3465538 C20.2703278,11.3493703 20.2752727,11.3522255 20.2801951,11.3551191 L22.4318256,12.62 L22.4320863,10.06 C22.4320863,9.45248678 22.9245731,8.96 23.5320863,8.96 Z M37.7534772,8.96 C38.3609905,8.96 38.8534772,9.45248678 38.8534772,10.06 L38.8532165,12.62 L41.0053685,11.3551191 C41.5280314,11.047873 42.2008056,11.2225028 42.5080517,11.7451657 C42.5109453,11.7500881 42.5138005,11.755033 42.516617,11.76 L42.5324336,11.7878933 C42.8287937,12.3105369 42.6509674,12.974287 42.1330116,13.2787661 L39.9522165,14.559 L42.1330116,15.8412339 C42.6509674,16.145713 42.8287937,16.8094631 42.5324336,17.3321067 L42.516617,17.36 C42.2175636,17.8873934 41.5475961,18.0724995 41.0202027,17.7734462 C41.0152358,17.7706297 41.0102909,17.7677745 41.0053685,17.7648809 L38.8532165,16.499 L38.8534772,19.06 C38.8534772,19.6675132 38.3609905,20.16 37.7534772,20.16 C37.145964,20.16 36.6534772,19.6675132 36.6534772,19.06 L36.6532165,16.499 L34.501586,17.7648809 C33.9789231,18.072127 33.3061489,17.8974972 32.9989028,17.3748343 L32.9745209,17.3321067 C32.6781608,16.8094631 32.8559871,16.145713 33.3739429,15.8412339 L35.5532165,14.56 L33.3739429,13.2787661 C32.8559871,12.974287 32.6781608,12.3105369 32.9745209,11.7878933 L32.9903375,11.76 C33.2893909,11.2326066 33.9593584,11.0475005 34.4867517,11.3465538 C34.4917187,11.3493703 34.4966636,11.3522255 34.501586,11.3551191 L36.6532165,12.62 L36.6534772,10.06 C36.6534772,9.45248678 37.145964,8.96 37.7534772,8.96 Z M51.9748681,8.96 C52.5823814,8.96 53.0748681,9.45248678 53.0748681,10.06 L53.0746074,12.62 L55.2267594,11.3551191 C55.7494223,11.047873 56.4221965,11.2225028 56.7294426,11.7451657 C56.7323362,11.7500881 56.7351914,11.755033 56.7380079,11.76 L56.7538245,11.7878933 C57.0501846,12.3105369 56.8723583,12.974287 56.3544025,13.2787661 L54.1736074,14.559 L56.3544025,15.8412339 C56.8723583,16.145713 57.0501846,16.8094631 56.7538245,17.3321067 L56.7380079,17.36 C56.4389545,17.8873934 55.768987,18.0724995 55.2415936,17.7734462 C55.2366267,17.7706297 55.2316818,17.7677745 55.2267594,17.7648809 L53.0746074,16.499 L53.0748681,19.06 C53.0748681,19.6675132 52.5823814,20.16 51.9748681,20.16 C51.3673549,20.16 50.8748681,19.6675132 50.8748681,19.06 L50.8746074,16.499 L48.7229769,17.7648809 C48.200314,18.072127 47.5275398,17.8974972 47.2202937,17.3748343 L47.1959118,17.3321067 C46.8995517,16.8094631 47.077378,16.145713 47.5953338,15.8412339 L49.7746074,14.56 L47.5953338,13.2787661 C47.077378,12.974287 46.8995517,12.3105369 47.1959118,11.7878933 L47.2117284,11.76 C47.5107818,11.2326066 48.1807493,11.0475005 48.7081426,11.3465538 C48.7131096,11.3493703 48.7180545,11.3522255 48.7229769,11.3551191 L50.8746074,12.62 L50.8748681,10.06 C50.8748681,9.45248678 51.3673549,8.96 51.9748681,8.96 Z M66.196259,8.96 C66.8037723,8.96 67.296259,9.45248678 67.296259,10.06 L67.2959983,12.62 L69.4481503,11.3551191 C69.9708132,11.047873 70.6435874,11.2225028 70.9508335,11.7451657 C70.9537271,11.7500881 70.9565823,11.755033 70.9593988,11.76 L70.9752154,11.7878933 C71.2715755,12.3105369 71.0937492,12.974287 70.5757934,13.2787661 L68.3949983,14.559 L70.5757934,15.8412339 C71.0937492,16.145713 71.2715755,16.8094631 70.9752154,17.3321067 L70.9593988,17.36 C70.6603454,17.8873934 69.9903779,18.0724995 69.4629845,17.7734462 C69.4580176,17.7706297 69.4530727,17.7677745 69.4481503,17.7648809 L67.2959983,16.499 L67.296259,19.06 C67.296259,19.6675132 66.8037723,20.16 66.196259,20.16 C65.5887458,20.16 65.096259,19.6675132 65.096259,19.06 L65.0959983,16.499 L62.9443678,17.7648809 C62.4217049,18.072127 61.7489307,17.8974972 61.4416846,17.3748343 L61.4173027,17.3321067 C61.1209426,16.8094631 61.2987689,16.145713 61.8167247,15.8412339 L63.9959983,14.56 L61.8167247,13.2787661 C61.2987689,12.974287 61.1209426,12.3105369 61.4173027,11.7878933 L61.4331193,11.76 C61.7321727,11.2326066 62.4021402,11.0475005 62.9295335,11.3465538 C62.9345005,11.3493703 62.9394454,11.3522255 62.9443678,11.3551191 L65.0959983,12.62 L65.096259,10.06 C65.096259,9.45248678 65.5887458,8.96 66.196259,8.96 Z" id="path-48"></path>
        <filter x="-6.7%" y="-40.2%" width="113.5%" height="180.4%" filterUnits="objectBoundingBox" id="filter-49">
            <feGaussianBlur stdDeviation="3" in="SourceAlpha" result="shadowBlurInner1"></feGaussianBlur>
            <feOffset dx="0" dy="3" in="shadowBlurInner1" result="shadowOffsetInner1"></feOffset>
            <feComposite in="shadowOffsetInner1" in2="SourceAlpha" operator="arithmetic" k2="-1" k3="1" result="shadowInnerInner1"></feComposite>
            <feColorMatrix values="0 0 0 0 0   0 0 0 0 0   0 0 0 0 0  0 0 0 0.1 0" type="matrix" in="shadowInnerInner1"></feColorMatrix>
        </filter>
    </defs>
    <g id="桌面版" stroke="none" stroke-width="1" fill="none" fill-rule="evenodd">
        <g id="安全密钥-管理-修改/设置PIN" transform="translate(-576, -140)">
            <g id="编组-8" transform="translate(466, 60)">
                <g id="ill_fido_password" transform="translate(110, 80)">
                    <g id="编组-11">
                        <rect id="矩形" x="0" y="0" width="180" height="180"></rect>
                        <mask id="mask-2" fill="white">
                            <use xlink:href="#path-1"></use>
                        </mask>
                        <use id="矩形" fill-opacity="0.15" fill="#ABABAB" xlink:href="#path-1"></use>
                        <g id="编组-9" filter="url(#filter-3)" mask="url(#mask-2)">
                            <g transform="translate(97.5, 105) rotate(-90) translate(-97.5, -105)translate(82.5, 72.5)">
                                <g id="矩形" fill="none">
                                    <use fill="#BCBCBC" fill-rule="evenodd" xlink:href="#path-4"></use>
                                    <use fill="black" fill-opacity="1" filter="url(#filter-5)" xlink:href="#path-4"></use>
                                    <path stroke-opacity="0.0638572853" stroke="#000000" stroke-width="1" d="M22,0.5 C22.4142136,0.5 22.7892136,0.667893219 23.0606602,0.939339828 C23.3321068,1.21078644 23.5,1.58578644 23.5,2 L23.5,13.5 L8.5,13.5 L8.5,2 C8.5,1.58578644 8.66789322,1.21078644 8.93933983,0.939339828 C9.21078644,0.667893219 9.58578644,0.5 10,0.5 Z" stroke-linejoin="square"></path>
                                </g>
                                <g id="形状结合" fill="none">
                                    <use fill="url(#linearGradient-6)" fill-rule="evenodd" xlink:href="#path-7"></use>
                                    <use fill="black" fill-opacity="1" filter="url(#filter-8)" xlink:href="#path-7"></use>
                                    <path stroke-opacity="0.03" stroke="#000000" stroke-width="1" d="M27,12.5 C27.6903559,12.5 28.3153559,12.779822 28.767767,13.232233 C29.220178,13.6846441 29.5,14.3096441 29.5,15 L29.5,61 C29.5,61.9664983 29.1082492,62.8414983 28.4748737,63.4748737 C27.8414983,64.1082492 26.9664983,64.5 26,64.5 L6,64.5 C5.03350169,64.5 4.15850169,64.1082492 3.52512627,63.4748737 C2.89175084,62.8414983 2.5,61.9664983 2.5,61 L2.5,15 C2.5,14.3096441 2.77982203,13.6846441 3.23223305,13.232233 C3.68464406,12.779822 4.30964406,12.5 5,12.5 L27,12.5 Z M23,52.5 L9,52.5 C8.30964406,52.5 7.68464406,52.779822 7.23223305,53.232233 C6.77982203,53.6846441 6.5,54.3096441 6.5,55 L6.5,58 C6.5,58.6903559 6.77982203,59.3153559 7.23223305,59.767767 C7.68464406,60.220178 8.30964406,60.5 9,60.5 L23,60.5 C23.6903559,60.5 24.3153559,60.220178 24.767767,59.767767 C25.220178,59.3153559 25.5,58.6903559 25.5,58 L25.5,55 C25.5,54.3096441 25.220178,53.6846441 24.767767,53.232233 C24.3153559,52.779822 23.6903559,52.5 23,52.5 Z" stroke-linejoin="square"></path>
                                </g>
                                <g id="编组" stroke-width="1" fill="none" fill-rule="evenodd" transform="translate(16, 33) rotate(-270) translate(-16, -33)translate(-5, 19)">
                                    <mask id="mask-10" fill="white">
                                        <use xlink:href="#path-9"></use>
                                    </mask>
                                    <g id="蒙版"></g>
                                    <g opacity="0.168590727" mask="url(#mask-10)" fill="#040655" fill-rule="nonzero" id="形状结合">
                                        <g transform="translate(14.9289, 18.5) scale(-1, -1) rotate(-315) translate(-14.9289, -18.5)translate(-1.0312, 1.1256)" opacity="0.7">
                                            <path d="M21.9203102,-3.63797881e-12 C27.4431577,-3.63797881e-12 31.9203102,4.4771525 31.9203102,10 C31.9203102,15.5228475 27.4431577,20 21.9203102,20 C19.6999028,20 17.6485178,19.2763291 15.9891463,18.0519783 L12.02,22.02 L16.263456,26.263456 L13.4350288,29.0918831 L9.192,24.848 L6.363,27.677 L10.6066017,31.9203102 L7.77817459,34.7487373 L3.535,30.505 L-3.63797881e-12,26.9705627 L12.819554,14.1503012 C12.242098,12.8861048 11.9203102,11.4806312 11.9203102,10 C11.9203102,4.47715256 16.3974627,-3.63797881e-12 21.9203102,-3.63797881e-12 Z M21.9203101,4 C18.6066016,4 15.9203101,6.6862915 15.9203101,10 C15.9203101,13.3137085 18.6066016,16 21.9203101,16 C25.2340186,16 27.9203101,13.3137085 27.9203101,10 C27.9203101,6.6862915 25.2340186,4 21.9203101,4 Z"></path>
                                        </g>
                                    </g>
                                </g>
                                <g id="矩形" fill="none">
                                    <use fill="black" fill-opacity="1" filter="url(#filter-12)" xlink:href="#path-11"></use>
                                    <rect stroke-opacity="0.856044102" stroke="#F7D700" stroke-width="1" stroke-linejoin="square" x="7.5" y="53.5" width="17" height="6" rx="2"></rect>
                                    <rect stroke-opacity="0.1" stroke="#000000" stroke-width="1" x="6.5" y="52.5" width="19" height="8" rx="2"></rect>
                                </g>
                                <path d="M0.5,46 L2,46 L2,46 L2,53 L0.5,53 C0.223857625,53 3.38176876e-17,52.7761424 0,52.5 L0,46.5 C-3.38176876e-17,46.2238576 0.223857625,46 0.5,46 Z" id="矩形" fill="#2A397F" fill-rule="evenodd"></path>
                            </g>
                        </g>
                        <g id="编组-14" mask="url(#mask-2)">
                            <g transform="translate(4, 12)">
                                <g id="矩形">
                                    <use fill="black" fill-opacity="1" filter="url(#filter-15)" xlink:href="#path-14"></use>
                                    <use fill="url(#linearGradient-13)" fill-rule="evenodd" xlink:href="#path-14"></use>
                                    <use fill="black" fill-opacity="1" filter="url(#filter-16)" xlink:href="#path-14"></use>
                                    <path stroke-opacity="0.05" stroke="#000000" stroke-width="1" d="M72.5,-0.5 L72.5,124 C72.5,126.34721 71.5486051,128.47221 70.0104076,130.010408 C68.4722102,131.548605 66.3472102,132.5 64,132.5 L7.5,132.5 L7.5,-0.5 L72.5,-0.5 Z"></path>
                                </g>
                                <g id="矩形">
                                    <use fill="#BBBBC4" fill-rule="evenodd" xlink:href="#path-17"></use>
                                    <use fill="black" fill-opacity="1" filter="url(#filter-18)" xlink:href="#path-17"></use>
                                </g>
                                <g id="编组-10" stroke-width="1" fill-rule="evenodd" transform="translate(0, 10)">
                                    <mask id="mask-20" fill="white">
                                        <use xlink:href="#path-19"></use>
                                    </mask>
                                    <g id="矩形">
                                        <use fill="#BBBBC4" fill-rule="evenodd" xlink:href="#path-19"></use>
                                        <use fill="black" fill-opacity="1" filter="url(#filter-21)" xlink:href="#path-19"></use>
                                    </g>
                                    <g id="矩形" mask="url(#mask-20)">
                                        <use fill="#373636" fill-rule="evenodd" xlink:href="#path-22"></use>
                                        <use fill="black" fill-opacity="1" filter="url(#filter-23)" xlink:href="#path-22"></use>
                                    </g>
                                    <g id="矩形" mask="url(#mask-20)">
                                        <use fill="#373636" fill-rule="evenodd" xlink:href="#path-24"></use>
                                        <use fill="black" fill-opacity="1" filter="url(#filter-25)" xlink:href="#path-24"></use>
                                    </g>
                                    <g id="矩形" mask="url(#mask-20)">
                                        <use fill="#373636" fill-rule="evenodd" xlink:href="#path-26"></use>
                                        <use fill="black" fill-opacity="1" filter="url(#filter-27)" xlink:href="#path-26"></use>
                                    </g>
                                    <g id="矩形" mask="url(#mask-20)">
                                        <use fill="#373636" fill-rule="evenodd" xlink:href="#path-28"></use>
                                        <use fill="black" fill-opacity="1" filter="url(#filter-29)" xlink:href="#path-28"></use>
                                    </g>
                                    <g id="矩形" mask="url(#mask-20)">
                                        <use fill="#373636" fill-rule="evenodd" xlink:href="#path-30"></use>
                                        <use fill="black" fill-opacity="1" filter="url(#filter-31)" xlink:href="#path-30"></use>
                                    </g>
                                    <g id="矩形" mask="url(#mask-20)">
                                        <use fill="#373636" fill-rule="evenodd" xlink:href="#path-32"></use>
                                        <use fill="black" fill-opacity="1" filter="url(#filter-33)" xlink:href="#path-32"></use>
                                    </g>
                                    <g id="矩形" mask="url(#mask-20)">
                                        <use fill="#373636" fill-rule="evenodd" xlink:href="#path-34"></use>
                                        <use fill="black" fill-opacity="1" filter="url(#filter-35)" xlink:href="#path-34"></use>
                                    </g>
                                    <g id="矩形" mask="url(#mask-20)">
                                        <use fill="#373636" fill-rule="evenodd" xlink:href="#path-36"></use>
                                        <use fill="black" fill-opacity="1" filter="url(#filter-37)" xlink:href="#path-36"></use>
                                    </g>
                                    <g id="矩形" mask="url(#mask-20)">
                                        <use fill="#373636" fill-rule="evenodd" xlink:href="#path-38"></use>
                                        <use fill="black" fill-opacity="1" filter="url(#filter-39)" xlink:href="#path-38"></use>
                                    </g>
                                    <g id="矩形" mask="url(#mask-20)">
                                        <use fill="#373636" fill-rule="evenodd" xlink:href="#path-40"></use>
                                        <use fill="black" fill-opacity="1" filter="url(#filter-41)" xlink:href="#path-40"></use>
                                    </g>
                                    <g id="矩形" mask="url(#mask-20)">
                                        <use fill="#373636" fill-rule="evenodd" xlink:href="#path-42"></use>
                                        <use fill="black" fill-opacity="1" filter="url(#filter-43)" xlink:href="#path-42"></use>
                                    </g>
                                </g>
                            </g>
                        </g>
                    </g>
                    <g id="编组" transform="translate(91, 44)" fill-rule="nonzero">
                        <g id="矩形">
                            <use fill="black" fill-opacity="1" filter="url(#filter-46)" xlink:href="#path-45"></use>
                            <use fill="url(#linearGradient-44)" xlink:href="#path-45"></use>
                        </g>
                        <g id="形状结合" opacity="0.490025112">
                            <use fill="url(#linearGradient-47)" xlink:href="#path-48"></use>
                            <use fill="black" fill-opacity="1" filter="url(#filter-49)" xlink:href="#path-48"></use>
                        </g>
                    </g>
                </g>
            </g>
        </g>
    </g>
</svg>